<svg width="34" height="34" viewBox="0 0 34 34" fill="none" xmlns="http://www.w3.org/2000/svg">
<g clip-path="url(#clip0_214_14555)">
<path d="M22 8.66663C22.2041 8.66665 22.4011 8.74159 22.5536 8.87722C22.7062 9.01285 22.8036 9.19975 22.8275 9.40246L22.8333 9.49996V12.8333C22.8333 13.0374 22.7584 13.2344 22.6227 13.3869C22.4871 13.5395 22.3002 13.6369 22.0975 13.6608L22 13.6666H19.5V14.5H22C22.1186 14.5 22.2359 14.5254 22.3439 14.5744C22.4519 14.6234 22.5483 14.6949 22.6265 14.7841C22.7046 14.8733 22.7629 14.9782 22.7972 15.0918C22.8316 15.2053 22.8414 15.3249 22.8258 15.4425L22.8092 15.5358L21.9758 18.8691C21.9345 19.0337 21.8438 19.1818 21.7161 19.2934C21.5883 19.4051 21.4295 19.4751 21.2608 19.4941L21.1667 19.5H19.5V24.5C19.5 24.7041 19.425 24.9011 19.2894 25.0536C19.1538 25.2061 18.9669 25.3036 18.7642 25.3275L18.6667 25.3333H15.3333C15.1292 25.3333 14.9322 25.2583 14.7797 25.1227C14.6272 24.9871 14.5297 24.8002 14.5058 24.5975L14.5 24.5V19.5H12.8333C12.6292 19.4999 12.4322 19.425 12.2797 19.2894C12.1272 19.1537 12.0297 18.9668 12.0058 18.7641L12 18.6666V15.3333C12 15.1292 12.075 14.9322 12.2106 14.7796C12.3462 14.6271 12.5331 14.5297 12.7358 14.5058L12.8333 14.5H14.5V13.6666C14.5 12.373 15.0013 11.1297 15.8987 10.1979C16.7961 9.26614 18.0198 8.71847 19.3125 8.66996L19.5 8.66663H22Z" fill="#4267B2"/>
</g>
<defs>
<clipPath id="clip0_214_14555">
<rect width="20" height="20" fill="white" transform="translate(7 7)"/>
</clipPath>
</defs>
</svg>
