<svg width="34" height="34" viewBox="0 0 34 34" fill="none" xmlns="http://www.w3.org/2000/svg">
<g clip-path="url(#clip0_214_14557)">
<path d="M11.4294 8.74998C12.0886 8.65581 13.0127 8.87081 14.2069 9.55498L14.4336 9.68915L14.5669 9.77248L14.8977 9.70331C16.1592 9.45955 17.4535 9.437 18.7227 9.63665L19.1027 9.70331L19.4327 9.77248L19.5669 9.68915C20.7211 8.98915 21.6394 8.71415 22.3352 8.73248L22.4719 8.73915L22.5944 8.75331L22.6577 8.76498L22.6994 8.77415L22.8194 8.81331C23.0159 8.89453 23.1739 9.04776 23.2611 9.24165C23.6021 10.0014 23.7169 10.8433 23.5919 11.6666L23.5527 11.8891L23.5144 12.0525L23.6169 12.1883C24.0952 12.8508 24.3919 13.6283 24.4752 14.4441L24.4944 14.69L24.5002 14.9166C24.5002 18.1291 23.1177 19.8191 20.6302 20.4833L20.4261 20.5341L20.3161 20.5583L20.3277 20.6925L20.3344 20.8233L20.3377 21.1275L20.3361 21.305L20.3336 24.5C20.3336 24.7041 20.2586 24.9011 20.123 25.0536C19.9874 25.2062 19.8005 25.3036 19.5977 25.3275L19.5002 25.3333H14.5002C14.2961 25.3333 14.0991 25.2584 13.9466 25.1227C13.7941 24.9871 13.6966 24.8002 13.6727 24.5975L13.6669 24.5V23.8883C12.1519 24.105 11.1419 23.535 10.2419 22.3233L9.79608 21.685C9.56275 21.355 9.41691 21.2025 9.30525 21.1483L9.26525 21.1325C9.05892 21.0654 8.88688 20.9206 8.78568 20.7287C8.68448 20.5368 8.6621 20.313 8.7233 20.1049C8.78451 19.8967 8.92446 19.7207 9.11343 19.6141C9.30239 19.5075 9.52547 19.4788 9.73525 19.5341C10.2702 19.6908 10.6302 20.0075 11.0436 20.5666L11.4919 21.2075C12.1252 22.1066 12.6252 22.4233 13.6661 22.2L13.6669 21.635L13.6519 21.495C13.6273 21.267 13.6214 21.0373 13.6344 20.8083L13.6486 20.6541L13.6644 20.5541L13.5744 20.5341C11.0944 19.9425 9.65525 18.39 9.51191 15.4183L9.50358 15.16L9.50025 14.9166C9.50121 14.0138 9.76405 13.1306 10.2569 12.3741L10.3836 12.1891L10.4852 12.0533L10.4477 11.89C10.2975 11.158 10.3391 10.3995 10.5686 9.68831L10.6519 9.45331L10.7402 9.24248C10.8272 9.04875 10.9849 8.89554 11.1811 8.81415L11.3011 8.77498L11.4294 8.74998Z" fill="#2F2B3D" fill-opacity="0.9"/>
</g>
<defs>
<clipPath id="clip0_214_14557">
<rect width="20" height="20" fill="white" transform="translate(7 7)"/>
</clipPath>
</defs>
</svg>
