<svg width="34" height="34" viewBox="0 0 34 34" fill="none" xmlns="http://www.w3.org/2000/svg">
<g clip-path="url(#clip0_214_14558)">
<path d="M16.9993 8.66663C18.9079 8.66393 20.759 9.31905 22.241 10.5216C22.3346 10.5974 22.4106 10.6926 22.4639 10.8006C22.5172 10.9086 22.5464 11.0269 22.5496 11.1473C22.5527 11.2677 22.5298 11.3873 22.4823 11.498C22.4347 11.6086 22.3638 11.7077 22.2743 11.7883L21.016 12.9233C20.8731 13.052 20.69 13.1273 20.4979 13.1364C20.3057 13.1456 20.1163 13.0879 19.9619 12.9733C19.1146 12.3506 18.0925 12.0108 17.041 12.0023C15.9895 11.9938 14.9621 12.3171 14.1049 12.9261C13.2476 13.5351 12.6042 14.3989 12.2662 15.3946C11.9281 16.3903 11.9125 17.4673 12.2217 18.4723C12.5309 19.4774 13.1491 20.3594 13.9884 20.9929C14.8277 21.6264 15.8453 21.9792 16.8966 22.0011C17.9479 22.023 18.9794 21.7128 19.8443 21.1148C20.7092 20.5168 21.3636 19.6613 21.7144 18.67L21.7152 18.6666H18.6652C18.4612 18.6664 18.2644 18.5914 18.1121 18.4558C17.9597 18.3201 17.8624 18.1334 17.8385 17.9308L17.8327 17.8333V16.1666C17.8327 15.9456 17.9205 15.7337 18.0768 15.5774C18.233 15.4211 18.445 15.3333 18.666 15.3333H24.4535C24.6587 15.3333 24.8566 15.4089 25.0095 15.5458C25.1623 15.6826 25.2593 15.8711 25.2818 16.075C25.3152 16.3808 25.3327 16.6891 25.3327 17C25.3327 21.6025 21.6018 25.3333 16.9993 25.3333C12.3968 25.3333 8.66602 21.6025 8.66602 17C8.66602 12.3975 12.3968 8.66663 16.9993 8.66663Z" fill="#FF4C51"/>
</g>
<defs>
<clipPath id="clip0_214_14558">
<rect width="20" height="20" fill="white" transform="translate(7 7)"/>
</clipPath>
</defs>
</svg>
