<svg width="34" height="34" viewBox="0 0 34 34" fill="none" xmlns="http://www.w3.org/2000/svg">
<g clip-path="url(#clip0_214_14556)">
<path d="M18.7154 9.8417C17.2096 10.4809 16.2196 11.8859 16.1687 13.4917L16.1671 13.6434L15.9646 13.6242C13.9712 13.4 12.2162 12.3642 11.0112 10.6817C10.9296 10.5677 10.8206 10.4761 10.6942 10.4154C10.5678 10.3547 10.4281 10.3269 10.2881 10.3345C10.1481 10.3422 10.0123 10.385 9.89323 10.4591C9.77418 10.5332 9.67575 10.6361 9.60706 10.7584L9.52623 10.9134L9.48539 10.9959C8.88623 12.2334 8.49373 13.7375 8.63789 15.3317L8.66289 15.5592C8.89873 17.445 9.91289 19.0717 11.8121 20.2917L11.9562 20.3809L11.8887 20.4167C10.7929 20.9692 9.79039 21.21 8.69956 21.1667C7.81956 21.1334 7.49456 22.31 8.26789 22.7317C11.2662 24.3659 14.4854 24.87 17.2612 24.065C20.6446 23.0817 23.2212 20.5459 24.2071 17.0375L24.3129 16.625C24.5112 15.7975 24.6229 14.9534 24.6471 14.105L24.6496 13.8284L24.9771 13.1792L25.3437 12.4609L25.5221 12.0992L25.6204 11.8934C25.8412 11.4225 26.0004 11.0325 26.0987 10.7017L26.1104 10.655L26.1171 10.64C26.3004 10.1459 25.9787 9.50836 25.3329 9.50836L25.2312 9.5142C25.1654 9.52229 25.1008 9.53824 25.0387 9.5617L24.9671 9.59336C24.7292 9.70885 24.4843 9.80906 24.2337 9.89336L23.9371 9.9892L23.7112 10.0559L23.0679 10.2342C21.9546 9.30253 20.4479 9.1892 18.8912 9.77253L18.7154 9.8417Z" fill="#1DA1F2"/>
</g>
<defs>
<clipPath id="clip0_214_14556">
<rect width="20" height="20" fill="white" transform="translate(7 7)"/>
</clipPath>
</defs>
</svg>
