<svg width="31" height="30" viewBox="0 0 31 30" fill="none" xmlns="http://www.w3.org/2000/svg">
<path d="M30.7949 8.23028C30.7949 6.35854 29.1851 4.83586 27.2061 4.83586H23.5249V4.38154C23.5249 1.96592 21.4463 0 18.8911 0H11.9038C9.34863 0 7.27002 1.96592 7.27002 4.38154V4.83586H3.58887C1.60987 4.83586 0 6.35854 0 8.23028V9.76866C0 11.7973 0.77234 13.6574 2.05127 15.1041V23.9429C2.05127 26.9033 4.59863 29.3125 7.72998 29.3125H23.0649C26.1963 29.3125 28.7436 26.9033 28.7436 23.9429V15.1041C30.0226 13.6574 30.7949 11.7973 30.7949 9.76866V8.23028ZM10.27 4.38154C10.27 3.53016 11.0029 2.83669 11.9038 2.83669H18.8911C19.792 2.83669 20.5249 3.53016 20.5249 4.38154V4.83586H10.27V4.38154ZM3 8.23028C3 7.92278 3.26416 7.67254 3.58887 7.67254H27.2061C27.5308 7.67254 27.7949 7.92279 27.7949 8.23028V9.76866C27.7949 11.236 27.18 12.5675 26.1857 13.5543C26.1824 13.5574 26.1795 13.5611 26.1761 13.5643C25.1174 14.6098 23.6308 15.2647 21.9829 15.2647H21.2437V14.8769C21.2437 14.0939 20.5723 13.4586 19.7437 13.4586C18.9151 13.4586 18.2437 14.0939 18.2437 14.8769V15.2648H12.5513V14.8769C12.5513 14.0939 11.8799 13.4586 11.0513 13.4586C10.2227 13.4586 9.55128 14.0939 9.55128 14.8769V15.2648H8.81201C7.16412 15.2648 5.67755 14.6098 4.61883 13.5643C4.61547 13.5611 4.61254 13.5574 4.60919 13.5543C3.61493 12.5676 3 11.236 3 9.76867V8.23028ZM23.0649 26.4758H7.72998C6.25293 26.4758 5.05127 25.3391 5.05127 23.9429V17.2932C6.19373 17.806 7.46558 18.1014 8.81201 18.1014H9.55127V18.4893C9.55127 19.2723 10.2227 19.9076 11.0513 19.9076C11.8799 19.9076 12.5513 19.2723 12.5513 18.4893V18.1014H18.2436V18.4893C18.2436 19.2723 18.915 19.9076 19.7436 19.9076C20.5723 19.9076 21.2436 19.2723 21.2436 18.4893V18.1014H21.9829C23.3293 18.1014 24.6012 17.806 25.7436 17.2932V23.9429C25.7436 25.3391 24.542 26.4758 23.0649 26.4758Z" fill="#F4876B"/>
</svg>
