<svg width="27" height="27" viewBox="0 0 27 27" fill="none" xmlns="http://www.w3.org/2000/svg">
<path d="M16.6854 0.12249C10.8058 -0.723004 5.28179 2.89298 4.09613 8.36056C3.88519 9.33764 3.56775 10.1286 3.12823 10.7783C3.08917 10.8369 3.05401 10.8984 3.02374 10.9616L0.89367 15.4438C0.69146 15.87 0.72369 16.3622 0.97961 16.7612C1.23645 17.161 1.68377 17.415 2.177 17.4418L4.604 17.572V20.1024C4.604 21.3574 5.68322 22.3779 7.00952 22.3779H8.38177V25.4033C8.38177 26.1864 9.05371 26.8218 9.88189 26.8218H19.9299C20.758 26.8218 21.43 26.1864 21.43 25.4033C21.43 22.9339 22.2543 19.1881 24.0943 16.3844C24.0953 16.3835 24.0953 16.3826 24.0963 16.3816C25.7801 14.06 26.3905 11.2299 25.8133 8.40488C25.8133 8.40442 25.8133 8.40442 25.8133 8.40442C24.9362 4.11198 21.2679 0.783704 16.6854 0.12249ZM21.597 14.8112C21.5726 14.8445 21.5502 14.8791 21.5287 14.9142C19.8947 17.4141 18.7637 20.8394 18.4922 23.9848H11.3821V21.8155C11.3821 20.5614 10.3029 19.5409 8.97558 19.5409H7.6043V17.041C7.6043 15.8358 6.60717 14.8384 5.33452 14.7696L4.52391 14.7262L5.71739 12.2148C6.32683 11.2872 6.75853 10.2113 7.03587 8.92988C7.90025 4.94408 11.9475 2.30655 16.2322 2.92713C19.5118 3.39997 22.2397 5.87406 22.8677 8.94234C23.2935 11.0299 22.8423 13.1143 21.597 14.8112ZM0 21.6548C0 24.2083 2.19751 26.2861 4.89801 26.2861C5.7262 26.2861 6.39813 25.6508 6.39813 24.8677C6.39813 24.0845 5.72619 23.4492 4.89801 23.4492C3.85199 23.4492 3.0003 22.6439 3.0003 21.6548C3.0003 20.8717 2.32836 20.2363 1.50018 20.2363C0.67193 20.2363 0 20.8717 0 21.6548Z" fill="#F1BF5A"/>
</svg>
