<svg width="28" height="27" viewBox="0 0 28 27" fill="none" xmlns="http://www.w3.org/2000/svg">
<path d="M15 1.89113V0.945563C15 0.694784 14.8946 0.454276 14.7071 0.276949C14.5196 0.0996215 14.2652 0 14 0C13.7348 0 13.4804 0.0996215 13.2929 0.276949C13.1054 0.454276 13 0.694784 13 0.945563V1.89113C13 2.1419 13.1054 2.38241 13.2929 2.55974C13.4804 2.73707 13.7348 2.83669 14 2.83669C14.2652 2.83669 14.5196 2.73707 14.7071 2.55974C14.8946 2.38241 15 2.1419 15 1.89113ZM5.51 3.87681C5.3187 3.7219 5.07262 3.64095 4.82095 3.65015C4.56927 3.65934 4.33053 3.75799 4.15244 3.92639C3.97434 4.09479 3.87001 4.32053 3.86029 4.55851C3.85057 4.79648 3.93617 5.02916 4.1 5.21005L4.81 5.8814C5.0013 6.03631 5.24738 6.11726 5.49905 6.10806C5.75073 6.09887 5.98947 6.00022 6.16756 5.83182C6.34566 5.66342 6.44999 5.43768 6.45971 5.1997C6.46943 4.96173 6.38383 4.72905 6.22 4.54816L5.51 3.87681ZM2 14.1834C2.26522 14.1834 2.51957 14.0838 2.70711 13.9065C2.89464 13.7292 3 13.4887 3 13.2379C3 12.9871 2.89464 12.7466 2.70711 12.5693C2.51957 12.3919 2.26522 12.2923 2 12.2923H1C0.734784 12.2923 0.48043 12.3919 0.292893 12.5693C0.105357 12.7466 0 12.9871 0 13.2379C0 13.4887 0.105357 13.7292 0.292893 13.9065C0.48043 14.0838 0.734784 14.1834 1 14.1834H2ZM4.1 22.599C4.28736 22.7751 4.54081 22.8739 4.805 22.8739C5.06919 22.8739 5.32264 22.7751 5.51 22.599L6.22 21.9276C6.38383 21.7467 6.46943 21.514 6.45971 21.2761C6.44999 21.0381 6.34566 20.8123 6.16756 20.6439C5.98947 20.4755 5.75073 20.3769 5.49905 20.3677C5.24738 20.3585 5.0013 20.4395 4.81 20.5944L4.1 21.2657C3.91375 21.4429 3.80921 21.6825 3.80921 21.9323C3.80921 22.1821 3.91375 22.4218 4.1 22.599ZM23.19 20.5944C22.9987 20.4395 22.7526 20.3585 22.5009 20.3677C22.2493 20.3769 22.0105 20.4755 21.8324 20.6439C21.6543 20.8123 21.55 21.0381 21.5403 21.2761C21.5306 21.514 21.6162 21.7467 21.78 21.9276L22.49 22.599C22.6813 22.7539 22.9274 22.8348 23.1791 22.8256C23.4307 22.8164 23.6695 22.7178 23.8476 22.5494C24.0257 22.381 24.13 22.1552 24.1397 21.9173C24.1494 21.6793 24.0638 21.4466 23.9 21.2657L23.19 20.5944ZM27 12.2923H26C25.7348 12.2923 25.4804 12.3919 25.2929 12.5693C25.1054 12.7466 25 12.9871 25 13.2379C25 13.4887 25.1054 13.7292 25.2929 13.9065C25.4804 14.0838 25.7348 14.1834 26 14.1834H27C27.2652 14.1834 27.5196 14.0838 27.7071 13.9065C27.8946 13.7292 28 13.4887 28 13.2379C28 12.9871 27.8946 12.7466 27.7071 12.5693C27.5196 12.3919 27.2652 12.2923 27 12.2923ZM23.9 3.87681C23.7126 3.7007 23.4592 3.60185 23.195 3.60185C22.9308 3.60185 22.6774 3.7007 22.49 3.87681L21.78 4.54816C21.6753 4.63292 21.5903 4.73724 21.5303 4.85455C21.4703 4.97186 21.4365 5.09964 21.4312 5.22986C21.4259 5.36008 21.4491 5.48994 21.4994 5.61128C21.5496 5.73262 21.6259 5.84282 21.7234 5.93497C21.8208 6.02712 21.9374 6.09922 22.0657 6.14676C22.194 6.1943 22.3313 6.21624 22.4691 6.21121C22.6068 6.20618 22.7419 6.17429 22.866 6.11753C22.99 6.06078 23.1004 5.98038 23.19 5.8814L23.9 5.21005C24.0863 5.03289 24.1908 4.79323 24.1908 4.54343C24.1908 4.29363 24.0863 4.05397 23.9 3.87681ZM5 13.2379C5.00219 14.6353 5.36826 16.0106 6.06588 17.2425C6.7635 18.4744 7.77121 19.5249 9 20.3012V25.5302C9 25.781 9.10536 26.0215 9.29289 26.1988C9.48043 26.3761 9.73478 26.4758 10 26.4758H18C18.2652 26.4758 18.5196 26.3761 18.7071 26.1988C18.8946 26.0215 19 25.781 19 25.5302V20.3012C20.2933 19.4841 21.3406 18.3641 22.0397 17.0502C22.7388 15.7364 23.0659 14.2737 22.989 12.8047C22.9121 11.3357 22.4339 9.91067 21.601 8.66852C20.7682 7.42637 19.6091 6.40952 18.2368 5.71716C16.8644 5.02479 15.3258 4.68054 13.7709 4.71799C12.2159 4.75543 10.6978 5.17329 9.36454 5.93081C8.03128 6.68833 6.92841 7.75964 6.16348 9.04027C5.39856 10.3209 4.9977 11.7671 5 13.2379ZM11 24.5846V22.6935H17V24.5846H11ZM14 6.61894C15.5402 6.61972 17.0372 7.10084 18.2589 7.98772C19.4807 8.87461 20.3589 10.1177 20.7576 11.5245C21.1563 12.9313 21.0532 14.4231 20.4643 15.7688C19.8753 17.1145 18.8334 18.239 17.5 18.968C17.3474 19.0513 17.2208 19.1713 17.133 19.3157C17.0452 19.4602 16.9993 19.624 17 19.7906V20.8024H15V15.129H17C17.2652 15.129 17.5196 15.0294 17.7071 14.8521C17.8946 14.6747 18 14.4342 18 14.1834C18 13.9327 17.8946 13.6922 17.7071 13.5148C17.5196 13.3375 17.2652 13.2379 17 13.2379H11C10.7348 13.2379 10.4804 13.3375 10.2929 13.5148C10.1054 13.6922 10 13.9327 10 14.1834C10 14.4342 10.1054 14.6747 10.2929 14.8521C10.4804 15.0294 10.7348 15.129 11 15.129H13V20.8024H11V19.7812C11.0007 19.6146 10.9548 19.4507 10.867 19.3063C10.7792 19.1618 10.6526 19.0418 10.5 18.9585C9.17152 18.2275 8.13445 17.1033 7.54886 15.7595C6.96327 14.4157 6.86173 12.927 7.2599 11.5233C7.65807 10.1195 8.53382 8.87862 9.75196 7.99226C10.9701 7.1059 12.4629 6.62329 14 6.61894Z" fill="#B4708D"/>
</svg>
